<svg xmlns="http://www.w3.org/2000/svg" xmlns:xlink="http://www.w3.org/1999/xlink" width="500" zoomAndPan="magnify" viewBox="0 0 375 262.499992" height="350" preserveAspectRatio="xMidYMid meet" version="1.0"><defs><g/><clipPath id="47c0e86acb"><path d="M 12.722656 57.464844 L 109.289062 57.464844 L 109.289062 179.484375 L 12.722656 179.484375 Z M 12.722656 57.464844 " clip-rule="nonzero"/></clipPath><clipPath id="9ea46bf26a"><path d="M 35 57.464844 L 109.289062 57.464844 L 109.289062 132 L 35 132 Z M 35 57.464844 " clip-rule="nonzero"/></clipPath><clipPath id="c5ff5c31da"><path d="M 34.960938 82.460938 L 131.523438 82.460938 L 131.523438 204.476562 L 34.960938 204.476562 Z M 34.960938 82.460938 " clip-rule="nonzero"/></clipPath><clipPath id="d456e7fda0"><path d="M 57 82.460938 L 131.523438 82.460938 L 131.523438 157 L 57 157 Z M 57 82.460938 " clip-rule="nonzero"/></clipPath></defs><g clip-path="url(#47c0e86acb)"><path stroke-linecap="butt" transform="matrix(1.716348, 0, 0, 1.711326, 12.948422, 57.466342)" fill="none" stroke-linejoin="miter" d="M 55.000047 14.799413 L 55.000047 67.899215 C 55.000047 69.200289 53.900783 70.300496 52.598964 70.300496 L 3.40067 70.300496 C 2.101127 70.300496 0.999588 69.200289 0.999588 67.899215 L 0.999588 3.400178 C 0.999588 2.099104 2.101127 0.998897 3.40067 0.998897 L 41.198943 0.998897 Z M 55.000047 14.799413 " stroke="#000000" stroke-width="2" stroke-opacity="1" stroke-miterlimit="10"/></g><g clip-path="url(#9ea46bf26a)"><path stroke-linecap="butt" transform="matrix(1.716348, 0, 0, 1.711326, 12.948422, 57.466342)" fill="none" stroke-linejoin="miter" d="M 41.299083 0.998897 L 41.299083 13.699207 C 41.299083 14.299527 41.799783 14.799413 42.400622 14.799413 L 55.000047 14.799413 " stroke="#000000" stroke-width="2" stroke-opacity="1" stroke-miterlimit="10"/></g><g clip-path="url(#c5ff5c31da)"><path stroke-linecap="butt" transform="matrix(1.716348, 0, 0, 1.711326, 35.184442, 82.459384)" fill="none" stroke-linejoin="miter" d="M 54.999088 14.798914 L 54.999088 67.900998 C 54.999088 69.19979 53.899825 70.299996 52.600282 70.299996 L 3.399712 70.299996 C 2.100169 70.299996 1.000905 69.19979 1.000905 67.900998 L 1.000905 3.399679 C 1.000905 2.100887 2.100169 1.000681 3.399712 1.000681 L 41.200261 1.000681 Z M 54.999088 14.798914 " stroke="#000000" stroke-width="2" stroke-opacity="1" stroke-miterlimit="10"/></g><g clip-path="url(#d456e7fda0)"><path stroke-linecap="butt" transform="matrix(1.716348, 0, 0, 1.711326, 35.184442, 82.459384)" fill="none" stroke-linejoin="miter" d="M 41.300401 1.000681 L 41.300401 13.70099 C 41.300401 14.299028 41.8011 14.798914 42.399664 14.798914 L 54.999088 14.798914 " stroke="#000000" stroke-width="2" stroke-opacity="1" stroke-miterlimit="10"/></g><g fill="#000000" fill-opacity="1"><g transform="translate(145.637915, 164.507095)"><g><path d="M 11.421875 -6.46875 L 22.390625 -6.46875 L 22.390625 0 L 3.03125 0 L 3.03125 -34.390625 L 11.421875 -34.390625 Z M 11.421875 -6.46875 "/></g></g></g><g fill="#000000" fill-opacity="1"><g transform="translate(169.003694, 164.507095)"><g><path d="M 28.8125 -14.109375 C 28.8125 -13.328125 28.765625 -12.507812 28.671875 -11.65625 L 9.703125 -11.65625 C 9.828125 -9.957031 10.367188 -8.660156 11.328125 -7.765625 C 12.296875 -6.867188 13.484375 -6.421875 14.890625 -6.421875 C 16.984375 -6.421875 18.4375 -7.300781 19.25 -9.0625 L 28.171875 -9.0625 C 27.710938 -7.269531 26.882812 -5.65625 25.6875 -4.21875 C 24.5 -2.78125 23.003906 -1.648438 21.203125 -0.828125 C 19.410156 -0.015625 17.40625 0.390625 15.1875 0.390625 C 12.507812 0.390625 10.125 -0.175781 8.03125 -1.3125 C 5.945312 -2.457031 4.316406 -4.09375 3.140625 -6.21875 C 1.960938 -8.34375 1.375 -10.828125 1.375 -13.671875 C 1.375 -16.515625 1.953125 -18.992188 3.109375 -21.109375 C 4.265625 -23.234375 5.890625 -24.867188 7.984375 -26.015625 C 10.078125 -27.160156 12.476562 -27.734375 15.1875 -27.734375 C 17.832031 -27.734375 20.179688 -27.175781 22.234375 -26.0625 C 24.296875 -24.957031 25.90625 -23.375 27.0625 -21.3125 C 28.226562 -19.257812 28.8125 -16.859375 28.8125 -14.109375 Z M 20.234375 -16.3125 C 20.234375 -17.75 19.742188 -18.890625 18.765625 -19.734375 C 17.785156 -20.585938 16.5625 -21.015625 15.09375 -21.015625 C 13.6875 -21.015625 12.5 -20.609375 11.53125 -19.796875 C 10.570312 -18.984375 9.976562 -17.820312 9.75 -16.3125 Z M 20.234375 -16.3125 "/></g></g></g><g fill="#000000" fill-opacity="1"><g transform="translate(199.178371, 164.507095)"><g><path d="M 1.375 -13.71875 C 1.375 -16.53125 1.90625 -18.992188 2.96875 -21.109375 C 4.03125 -23.234375 5.472656 -24.867188 7.296875 -26.015625 C 9.128906 -27.160156 11.171875 -27.734375 13.421875 -27.734375 C 15.222656 -27.734375 16.863281 -27.359375 18.34375 -26.609375 C 19.832031 -25.859375 21.003906 -24.84375 21.859375 -23.5625 L 21.859375 -36.265625 L 30.234375 -36.265625 L 30.234375 0 L 21.859375 0 L 21.859375 -3.921875 C 21.066406 -2.609375 19.941406 -1.5625 18.484375 -0.78125 C 17.035156 0 15.347656 0.390625 13.421875 0.390625 C 11.171875 0.390625 9.128906 -0.1875 7.296875 -1.34375 C 5.472656 -2.507812 4.03125 -4.160156 2.96875 -6.296875 C 1.90625 -8.429688 1.375 -10.90625 1.375 -13.71875 Z M 21.859375 -13.671875 C 21.859375 -15.765625 21.273438 -17.414062 20.109375 -18.625 C 18.953125 -19.832031 17.539062 -20.4375 15.875 -20.4375 C 14.207031 -20.4375 12.789062 -19.835938 11.625 -18.640625 C 10.46875 -17.453125 9.890625 -15.8125 9.890625 -13.71875 C 9.890625 -11.625 10.46875 -9.960938 11.625 -8.734375 C 12.789062 -7.515625 14.207031 -6.90625 15.875 -6.90625 C 17.539062 -6.90625 18.953125 -7.507812 20.109375 -8.71875 C 21.273438 -9.925781 21.859375 -11.578125 21.859375 -13.671875 Z M 21.859375 -13.671875 "/></g></g></g><g fill="#000000" fill-opacity="1"><g transform="translate(232.439088, 164.507095)"><g><path d="M 13.421875 -27.734375 C 15.347656 -27.734375 17.035156 -27.335938 18.484375 -26.546875 C 19.941406 -25.765625 21.066406 -24.738281 21.859375 -23.46875 L 21.859375 -27.34375 L 30.234375 -27.34375 L 30.234375 -0.046875 C 30.234375 2.460938 29.734375 4.738281 28.734375 6.78125 C 27.742188 8.820312 26.226562 10.445312 24.1875 11.65625 C 22.144531 12.863281 19.601562 13.46875 16.5625 13.46875 C 12.507812 13.46875 9.222656 12.507812 6.703125 10.59375 C 4.191406 8.6875 2.757812 6.101562 2.40625 2.84375 L 10.6875 2.84375 C 10.945312 3.882812 11.566406 4.707031 12.546875 5.3125 C 13.523438 5.914062 14.734375 6.21875 16.171875 6.21875 C 17.898438 6.21875 19.28125 5.71875 20.3125 4.71875 C 21.34375 3.726562 21.859375 2.140625 21.859375 -0.046875 L 21.859375 -3.921875 C 21.035156 -2.648438 19.90625 -1.613281 18.46875 -0.8125 C 17.03125 -0.0078125 15.347656 0.390625 13.421875 0.390625 C 11.171875 0.390625 9.128906 -0.1875 7.296875 -1.34375 C 5.472656 -2.507812 4.03125 -4.160156 2.96875 -6.296875 C 1.90625 -8.429688 1.375 -10.90625 1.375 -13.71875 C 1.375 -16.53125 1.90625 -18.992188 2.96875 -21.109375 C 4.03125 -23.234375 5.472656 -24.867188 7.296875 -26.015625 C 9.128906 -27.160156 11.171875 -27.734375 13.421875 -27.734375 Z M 21.859375 -13.671875 C 21.859375 -15.765625 21.273438 -17.414062 20.109375 -18.625 C 18.953125 -19.832031 17.539062 -20.4375 15.875 -20.4375 C 14.207031 -20.4375 12.789062 -19.835938 11.625 -18.640625 C 10.46875 -17.453125 9.890625 -15.8125 9.890625 -13.71875 C 9.890625 -11.625 10.46875 -9.960938 11.625 -8.734375 C 12.789062 -7.515625 14.207031 -6.90625 15.875 -6.90625 C 17.539062 -6.90625 18.953125 -7.507812 20.109375 -8.71875 C 21.273438 -9.925781 21.859375 -11.578125 21.859375 -13.671875 Z M 21.859375 -13.671875 "/></g></g></g><g fill="#000000" fill-opacity="1"><g transform="translate(265.699806, 164.507095)"><g><path d="M 28.8125 -14.109375 C 28.8125 -13.328125 28.765625 -12.507812 28.671875 -11.65625 L 9.703125 -11.65625 C 9.828125 -9.957031 10.367188 -8.660156 11.328125 -7.765625 C 12.296875 -6.867188 13.484375 -6.421875 14.890625 -6.421875 C 16.984375 -6.421875 18.4375 -7.300781 19.25 -9.0625 L 28.171875 -9.0625 C 27.710938 -7.269531 26.882812 -5.65625 25.6875 -4.21875 C 24.5 -2.78125 23.003906 -1.648438 21.203125 -0.828125 C 19.410156 -0.015625 17.40625 0.390625 15.1875 0.390625 C 12.507812 0.390625 10.125 -0.175781 8.03125 -1.3125 C 5.945312 -2.457031 4.316406 -4.09375 3.140625 -6.21875 C 1.960938 -8.34375 1.375 -10.828125 1.375 -13.671875 C 1.375 -16.515625 1.953125 -18.992188 3.109375 -21.109375 C 4.265625 -23.234375 5.890625 -24.867188 7.984375 -26.015625 C 10.078125 -27.160156 12.476562 -27.734375 15.1875 -27.734375 C 17.832031 -27.734375 20.179688 -27.175781 22.234375 -26.0625 C 24.296875 -24.957031 25.90625 -23.375 27.0625 -21.3125 C 28.226562 -19.257812 28.8125 -16.859375 28.8125 -14.109375 Z M 20.234375 -16.3125 C 20.234375 -17.75 19.742188 -18.890625 18.765625 -19.734375 C 17.785156 -20.585938 16.5625 -21.015625 15.09375 -21.015625 C 13.6875 -21.015625 12.5 -20.609375 11.53125 -19.796875 C 10.570312 -18.984375 9.976562 -17.820312 9.75 -16.3125 Z M 20.234375 -16.3125 "/></g></g></g><g fill="#000000" fill-opacity="1"><g transform="translate(295.874483, 164.507095)"><g><path d="M 11.421875 -22.78125 C 12.398438 -24.28125 13.625 -25.460938 15.09375 -26.328125 C 16.5625 -27.203125 18.191406 -27.640625 19.984375 -27.640625 L 19.984375 -18.765625 L 17.6875 -18.765625 C 15.59375 -18.765625 14.023438 -18.316406 12.984375 -17.421875 C 11.941406 -16.523438 11.421875 -14.945312 11.421875 -12.6875 L 11.421875 0 L 3.03125 0 L 3.03125 -27.34375 L 11.421875 -27.34375 Z M 11.421875 -22.78125 "/></g></g></g><g fill="#000000" fill-opacity="1"><g transform="translate(316.840006, 164.507095)"><g><path d="M 11.421875 -36.265625 L 11.421875 0 L 3.03125 0 L 3.03125 -36.265625 Z M 11.421875 -36.265625 "/></g></g></g><g fill="#000000" fill-opacity="1"><g transform="translate(331.290538, 164.507095)"><g><path d="M 30.96875 -27.34375 L 13.8125 12.984375 L 4.796875 12.984375 L 11.078125 -0.9375 L -0.046875 -27.34375 L 9.3125 -27.34375 L 15.625 -10.234375 L 21.90625 -27.34375 Z M 30.96875 -27.34375 "/></g></g></g></svg>